<svg width="360" height="270" viewBox="0 0 360 270" fill="none" xmlns="http://www.w3.org/2000/svg" xmlns:xlink="http://www.w3.org/1999/xlink">
<path d="M160.043,41.214C159.974,41.127 159.886,41.056 159.785,41.008C159.685,40.959 159.575,40.934 159.463,40.934L145.463,41.714L141.343,34.974C141.037,34.468 140.635,34.028 140.158,33.678C139.681,33.329 139.14,33.077 138.566,32.938C137.991,32.798 137.395,32.774 136.811,32.866C136.227,32.958 135.667,33.165 135.163,33.474L130.983,36.014C129.964,36.639 129.234,37.643 128.953,38.805C128.672,39.967 128.863,41.193 129.483,42.214L129.703,42.574L100.943,44.154L84.443,12.154C83.423,10.479 82.082,9.023 80.496,7.869C78.91,6.716 77.111,5.888 75.203,5.434L74.663,5.314L67.803,0.994C66.65,0.278 65.32,-0.101 63.963,-0.101C62.606,-0.101 61.276,0.278 60.123,0.994L60.123,0.994C58.959,1.702 58.016,2.721 57.401,3.937C56.786,5.153 56.523,6.517 56.643,7.874L57.343,15.874C56.778,17.857 56.632,19.935 56.914,21.977C57.196,24.019 57.901,25.98 58.983,27.734L79.803,57.214L65.243,82.054L65.023,81.694C64.398,80.675 63.395,79.945 62.233,79.664C61.071,79.383 59.845,79.574 58.823,80.194L54.643,82.734C53.628,83.363 52.902,84.366 52.621,85.527C52.34,86.687 52.528,87.911 53.143,88.934L57.263,95.674L50.183,107.674C50.129,107.776 50.101,107.889 50.101,108.004C50.101,108.119 50.129,108.233 50.183,108.334L56.083,119.774C56.143,119.883 56.23,119.975 56.335,120.041C56.439,120.107 56.559,120.146 56.683,120.154C56.801,120.184 56.925,120.184 57.043,120.154C57.143,120.088 57.225,119.999 57.283,119.894L60.563,114.014L65.863,109.794L67.723,112.834C67.77,112.911 67.832,112.977 67.905,113.03C67.977,113.082 68.06,113.12 68.147,113.14C68.235,113.161 68.325,113.163 68.414,113.149C68.502,113.134 68.587,113.102 68.663,113.054L69.223,112.714L70.843,115.354C71.12,115.798 71.56,116.116 72.068,116.239C72.577,116.363 73.114,116.282 73.563,116.014L79.763,112.234C80.207,111.957 80.525,111.517 80.648,111.009C80.772,110.501 80.691,109.964 80.423,109.514L78.803,106.874L79.363,106.534C79.517,106.439 79.628,106.288 79.672,106.113C79.717,105.937 79.692,105.752 79.603,105.594L76.843,101.094L98.663,83.754L117.023,109.554L109.983,126.454L113.703,133.694L126.323,122.354L131.703,126.994L139.483,122.254L137.623,115.474L153.443,109.474L148.723,102.854L130.463,101.374L115.623,72.674L141.323,61.774L144.083,66.294C144.175,66.447 144.322,66.557 144.494,66.602C144.666,66.647 144.849,66.622 145.003,66.534L145.583,66.174L147.203,68.834C147.483,69.27 147.921,69.579 148.424,69.699C148.928,69.818 149.458,69.738 149.903,69.474L156.103,65.694C156.542,65.418 156.856,64.981 156.979,64.478C157.102,63.974 157.025,63.442 156.763,62.994L155.163,60.334L155.723,59.994C155.8,59.947 155.866,59.886 155.918,59.813C155.971,59.74 156.008,59.658 156.029,59.57C156.049,59.483 156.052,59.392 156.038,59.304C156.023,59.215 155.991,59.13 155.943,59.054L154.103,56.014L160.263,53.234L167.003,53.014C167.122,53.002 167.237,52.968 167.343,52.914C167.449,52.841 167.538,52.746 167.603,52.634C167.663,52.527 167.694,52.407 167.694,52.284C167.694,52.162 167.663,52.041 167.603,51.934L160.043,41.214ZM58.043,94.194L54.323,88.194C53.887,87.481 53.751,86.623 53.946,85.809C54.141,84.996 54.651,84.293 55.363,83.854L59.543,81.294C60.261,80.865 61.118,80.735 61.931,80.934C62.743,81.132 63.444,81.643 63.883,82.354L64.483,83.334L61.263,88.814L58.043,94.194ZM79.263,110.054C79.346,110.193 79.371,110.358 79.333,110.515C79.296,110.672 79.199,110.808 79.063,110.894L72.843,114.674C72.775,114.718 72.699,114.747 72.62,114.761C72.54,114.774 72.459,114.771 72.381,114.753C72.302,114.734 72.229,114.7 72.164,114.652C72.099,114.604 72.044,114.544 72.003,114.474L70.383,111.834L77.643,107.394L79.263,110.054ZM78.083,105.534L68.523,111.374L66.943,108.774L75.783,101.754L78.083,105.534ZM75.543,100.214L65.543,108.074L59.543,112.834C59.473,112.891 59.412,112.959 59.363,113.034L56.643,117.934L51.483,107.934L62.003,89.934L65.783,83.514L80.603,58.234L97.723,82.514L75.543,100.214ZM130.683,41.514C130.247,40.801 130.111,39.943 130.306,39.129C130.501,38.316 131.011,37.613 131.723,37.174L135.903,34.634C136.617,34.198 137.475,34.062 138.288,34.257C139.102,34.452 139.805,34.962 140.243,35.674L143.963,41.794L137.623,42.134L131.263,42.494L130.683,41.514ZM58.003,7.734C57.894,6.627 58.103,5.512 58.607,4.52C59.11,3.528 59.886,2.7 60.843,2.134L60.843,2.134C61.78,1.542 62.865,1.228 63.973,1.228C65.081,1.228 66.166,1.542 67.103,2.134L71.663,4.994L71.463,4.994C70.941,4.994 70.419,5.035 69.903,5.114C69.75,5.095 69.596,5.095 69.443,5.114C68.855,5.194 68.274,5.314 67.703,5.474L67.543,5.474C67.014,5.634 66.493,5.821 65.983,6.034L65.563,6.234C65.003,6.474 64.462,6.755 63.943,7.074C63.423,7.394 62.923,7.754 62.443,8.114L62.083,8.414C61.657,8.773 61.25,9.154 60.863,9.554L60.763,9.654C60.362,10.098 59.988,10.566 59.643,11.054L59.383,11.414C59.084,11.851 58.81,12.305 58.563,12.774C58.523,12.823 58.489,12.877 58.463,12.934L58.003,7.734ZM58.683,16.174C59.634,12.914 61.776,10.13 64.683,8.374C67.588,6.609 71.049,5.995 74.383,6.654L74.943,6.774C78.441,7.615 81.462,9.809 83.343,12.874L100.023,45.154L114.023,72.414L135.863,114.634L132.843,116.474C129.777,111.474 126.723,106.474 123.683,101.474C123.406,101.039 122.972,100.727 122.471,100.605C121.97,100.482 121.441,100.558 120.994,100.816C120.548,101.074 120.218,101.495 120.075,101.99C119.931,102.485 119.984,103.017 120.223,103.474L129.363,118.494L126.443,120.274L81.263,56.754L81.123,56.534L60.103,27.214C59.105,25.588 58.461,23.77 58.213,21.878C57.965,19.986 58.118,18.063 58.663,16.234L58.683,16.174ZM114.103,131.334L111.463,126.214L117.843,110.894L125.343,121.094L125.183,121.094L125.303,121.194L114.103,131.334ZM137.903,121.454L131.903,125.154L127.523,121.374L130.203,119.754C130.484,120.213 130.936,120.541 131.459,120.667C131.983,120.793 132.534,120.705 132.993,120.424C133.452,120.143 133.78,119.691 133.906,119.168C134.032,118.645 133.944,118.093 133.663,117.634L136.443,115.934L137.903,121.454ZM147.903,103.934L151.243,108.614L137.243,113.994L137.243,113.834L137.103,113.834L131.463,102.514L147.903,103.934ZM155.543,63.474C155.624,63.615 155.646,63.782 155.605,63.939C155.564,64.096 155.463,64.231 155.323,64.314L149.123,68.114C149.053,68.157 148.974,68.186 148.892,68.198C148.81,68.21 148.727,68.206 148.647,68.186C148.567,68.165 148.491,68.129 148.426,68.079C148.36,68.029 148.304,67.966 148.263,67.894L146.663,65.254L153.923,60.814L155.543,63.474ZM154.363,58.974L144.803,64.794L142.483,61.014L143.443,60.574L152.783,56.354L154.363,58.974ZM160.003,51.654L159.763,51.654L152.763,54.794L141.243,60.014L115.023,71.214L103.023,48.174L101.603,45.454L130.883,43.834L138.203,43.414L159.123,42.274L165.643,51.434L160.003,51.654Z" transform="rotate(180 108.897 66.797)" fill="#999999"/>
<path d="M344.043,123.214C343.974,123.127 343.886,123.056 343.785,123.008C343.685,122.959 343.575,122.934 343.463,122.934L329.463,123.714L325.343,116.974C325.037,116.468 324.635,116.028 324.158,115.678C323.681,115.329 323.14,115.077 322.566,114.938C321.991,114.798 321.395,114.774 320.811,114.866C320.227,114.958 319.667,115.165 319.163,115.474L314.983,118.014C313.964,118.639 313.234,119.643 312.953,120.805C312.672,121.967 312.863,123.193 313.483,124.214L313.703,124.574L284.943,126.154L268.443,94.154C267.423,92.479 266.082,91.023 264.496,89.869C262.91,88.716 261.111,87.888 259.203,87.434L258.663,87.314L251.803,82.994C250.65,82.278 249.32,81.899 247.963,81.899C246.606,81.899 245.276,82.278 244.123,82.994L244.123,82.994C242.959,83.702 242.016,84.721 241.401,85.937C240.786,87.153 240.523,88.517 240.643,89.874L241.343,97.874C240.778,99.857 240.632,101.935 240.914,103.977C241.196,106.019 241.901,107.98 242.983,109.734L263.803,139.214L249.243,164.054L249.023,163.694C248.398,162.675 247.395,161.945 246.233,161.664C245.071,161.383 243.845,161.574 242.823,162.194L238.643,164.734C237.628,165.363 236.902,166.366 236.621,167.527C236.34,168.687 236.528,169.911 237.143,170.934L241.263,177.674L234.183,189.674C234.129,189.776 234.101,189.889 234.101,190.004C234.101,190.119 234.129,190.233 234.183,190.334L240.083,201.774C240.143,201.883 240.23,201.975 240.335,202.041C240.439,202.107 240.559,202.146 240.683,202.154C240.801,202.184 240.925,202.184 241.043,202.154C241.143,202.088 241.225,201.999 241.283,201.894L244.563,196.014L249.863,191.794L251.723,194.834C251.77,194.911 251.832,194.977 251.905,195.03C251.977,195.082 252.06,195.12 252.147,195.14C252.235,195.161 252.325,195.163 252.414,195.149C252.502,195.134 252.587,195.102 252.663,195.054L253.223,194.714L254.843,197.354C255.12,197.798 255.56,198.116 256.068,198.239C256.577,198.363 257.114,198.282 257.563,198.014L263.763,194.234C264.207,193.957 264.525,193.517 264.648,193.009C264.772,192.501 264.691,191.964 264.423,191.514L262.803,188.874L263.363,188.534C263.517,188.439 263.628,188.288 263.672,188.113C263.717,187.937 263.692,187.752 263.603,187.594L260.843,183.094L282.663,165.754L301.023,191.554L293.983,208.454L297.703,215.694L310.323,204.354L315.703,208.994L323.483,204.254L321.623,197.474L337.443,191.474L332.723,184.854L314.463,183.374L299.623,154.674L325.323,143.774L328.083,148.294C328.175,148.447 328.322,148.557 328.494,148.602C328.666,148.647 328.849,148.622 329.003,148.534L329.583,148.174L331.203,150.834C331.483,151.27 331.921,151.579 332.424,151.699C332.928,151.818 333.458,151.738 333.903,151.474L340.103,147.694C340.542,147.418 340.856,146.981 340.979,146.478C341.102,145.974 341.025,145.442 340.763,144.994L339.163,142.334L339.723,141.994C339.8,141.947 339.866,141.886 339.918,141.813C339.971,141.74 340.008,141.658 340.029,141.57C340.049,141.483 340.052,141.392 340.038,141.304C340.023,141.215 339.991,141.13 339.943,141.054L338.103,138.014L344.263,135.234L351.003,135.014C351.122,135.002 351.237,134.968 351.343,134.914C351.449,134.841 351.538,134.746 351.603,134.634C351.663,134.527 351.694,134.407 351.694,134.284C351.694,134.162 351.663,134.041 351.603,133.934L344.043,123.214ZM242.043,176.194L238.323,170.194C237.887,169.481 237.751,168.623 237.946,167.809C238.141,166.996 238.651,166.293 239.363,165.854L243.543,163.294C244.261,162.865 245.118,162.735 245.931,162.934C246.743,163.132 247.444,163.643 247.883,164.354L248.483,165.334L245.263,170.814L242.043,176.194ZM263.263,192.054C263.346,192.193 263.371,192.358 263.333,192.515C263.296,192.672 263.199,192.808 263.063,192.894L256.843,196.674C256.775,196.718 256.699,196.747 256.62,196.761C256.54,196.774 256.459,196.771 256.381,196.753C256.302,196.734 256.229,196.7 256.164,196.652C256.099,196.604 256.044,196.544 256.003,196.474L254.383,193.834L261.643,189.394L263.263,192.054ZM262.083,187.534L252.523,193.374L250.943,190.774L259.783,183.754L262.083,187.534ZM259.543,182.214L249.543,190.074L243.543,194.834C243.473,194.891 243.412,194.959 243.363,195.034L240.643,199.934L235.483,189.934L246.003,171.934L249.783,165.514L264.603,140.234L281.723,164.514L259.543,182.214ZM314.683,123.514C314.247,122.801 314.111,121.943 314.306,121.129C314.501,120.316 315.011,119.613 315.723,119.174L319.903,116.634C320.617,116.198 321.475,116.062 322.288,116.257C323.102,116.452 323.805,116.962 324.243,117.674L327.963,123.794L321.623,124.134L315.263,124.494L314.683,123.514ZM242.003,89.734C241.894,88.627 242.103,87.512 242.607,86.52C243.11,85.528 243.886,84.7 244.843,84.134L244.843,84.134C245.78,83.542 246.865,83.228 247.973,83.228C249.081,83.228 250.166,83.542 251.103,84.134L255.663,86.994L255.463,86.994C254.941,86.994 254.419,87.035 253.903,87.114C253.75,87.095 253.596,87.095 253.443,87.114C252.855,87.194 252.274,87.314 251.703,87.474L251.543,87.474C251.014,87.634 250.493,87.821 249.983,88.034L249.563,88.234C249.003,88.474 248.462,88.755 247.943,89.074C247.423,89.394 246.923,89.754 246.443,90.114L246.083,90.414C245.657,90.773 245.25,91.154 244.863,91.554L244.763,91.654C244.362,92.098 243.988,92.566 243.643,93.054L243.383,93.414C243.084,93.851 242.81,94.305 242.563,94.774C242.523,94.823 242.489,94.877 242.463,94.934L242.003,89.734ZM242.683,98.174C243.634,94.914 245.776,92.13 248.683,90.374C251.588,88.609 255.049,87.995 258.383,88.654L258.943,88.774C262.441,89.615 265.462,91.809 267.343,94.874L284.023,127.154L298.023,154.414L319.863,196.634L316.843,198.474C313.777,193.474 310.723,188.474 307.683,183.474C307.406,183.039 306.972,182.727 306.471,182.605C305.97,182.482 305.441,182.558 304.994,182.816C304.548,183.074 304.218,183.495 304.075,183.99C303.931,184.485 303.984,185.017 304.223,185.474L313.363,200.494L310.443,202.274L265.263,138.754L265.123,138.534L244.103,109.214C243.105,107.588 242.461,105.77 242.213,103.878C241.965,101.986 242.118,100.063 242.663,98.234L242.683,98.174ZM298.103,213.334L295.463,208.214L301.843,192.894L309.343,203.094L309.183,203.094L309.303,203.194L298.103,213.334ZM321.903,203.454L315.903,207.154L311.523,203.374L314.203,201.754C314.484,202.213 314.936,202.541 315.459,202.667C315.983,202.793 316.534,202.705 316.993,202.424C317.452,202.143 317.78,201.691 317.906,201.168C318.032,200.645 317.944,200.093 317.663,199.634L320.443,197.934L321.903,203.454ZM331.903,185.934L335.243,190.614L321.243,195.994L321.243,195.834L321.103,195.834L315.463,184.514L331.903,185.934ZM339.543,145.474C339.624,145.615 339.646,145.782 339.605,145.939C339.564,146.096 339.463,146.231 339.323,146.314L333.123,150.114C333.053,150.157 332.974,150.186 332.892,150.198C332.81,150.21 332.727,150.206 332.647,150.186C332.567,150.165 332.491,150.129 332.426,150.079C332.36,150.029 332.304,149.966 332.263,149.894L330.663,147.254L337.923,142.814L339.543,145.474ZM338.363,140.974L328.803,146.794L326.483,143.014L327.443,142.574L336.783,138.354L338.363,140.974ZM344.003,133.654L343.763,133.654L336.763,136.794L325.243,142.014L299.023,153.214L287.023,130.174L285.603,127.454L314.883,125.834L322.203,125.414L343.123,124.274L349.643,133.434L344.003,133.654Z" transform="rotate(180 292.897 148.797)" fill="#999999"/>
<path d="M118.893,269.727L117.313,269.727C117.228,269.727 117.143,269.709 117.064,269.675C116.985,269.643 116.913,269.593 116.854,269.531C116.794,269.471 116.747,269.397 116.716,269.317C116.685,269.237 116.671,269.153 116.673,269.067C116.673,268.981 116.691,268.895 116.724,268.817C116.757,268.737 116.806,268.667 116.868,268.607C116.929,268.547 117.002,268.501 117.082,268.469C117.162,268.439 117.248,268.423 117.333,268.427C118.633,268.427 119.913,268.427 121.173,268.427C121.345,268.421 121.512,268.483 121.639,268.599C121.766,268.715 121.843,268.875 121.853,269.047C121.854,269.219 121.788,269.387 121.669,269.513C121.55,269.639 121.387,269.717 121.213,269.727L118.893,269.727ZM113.533,269.527C112.233,269.527 110.933,269.307 109.633,269.147C109.549,269.137 109.468,269.109 109.394,269.069C109.32,269.027 109.255,268.971 109.203,268.903C109.151,268.837 109.112,268.759 109.09,268.677C109.068,268.595 109.062,268.511 109.073,268.427C109.083,268.343 109.11,268.261 109.152,268.187C109.193,268.113 109.249,268.047 109.316,267.995C109.383,267.943 109.46,267.905 109.542,267.883C109.624,267.861 109.709,267.855 109.793,267.867C111.073,268.027 112.353,268.147 113.613,268.227C113.785,268.241 113.944,268.323 114.056,268.455C114.168,268.585 114.225,268.755 114.213,268.927C114.208,269.011 114.187,269.093 114.15,269.169C114.113,269.245 114.061,269.311 113.998,269.367C113.935,269.423 113.861,269.465 113.782,269.493C113.702,269.521 113.618,269.531 113.533,269.527L113.533,269.527ZM125.154,269.527C124.991,269.527 124.835,269.469 124.713,269.363C124.591,269.255 124.513,269.107 124.493,268.947C124.482,268.775 124.539,268.605 124.651,268.475C124.763,268.343 124.922,268.261 125.094,268.247C126.113,268.147 127.093,268.027 128.133,267.867L128.893,267.767C128.978,267.753 129.064,267.755 129.147,267.775C129.23,267.795 129.308,267.831 129.377,267.881C129.446,267.931 129.504,267.995 129.548,268.067C129.592,268.141 129.621,268.221 129.633,268.307C129.656,268.473 129.613,268.643 129.511,268.777C129.41,268.913 129.26,269.001 129.094,269.027L128.333,269.147C127.313,269.307 126.334,269.427 125.213,269.527L125.154,269.527ZM105.833,268.687L105.733,268.687C104.473,268.467 103.173,268.227 101.893,267.947C101.729,267.907 101.585,267.807 101.492,267.667C101.399,267.525 101.363,267.353 101.393,267.187C101.41,267.101 101.444,267.021 101.492,266.949C101.541,266.877 101.603,266.817 101.676,266.769C101.749,266.723 101.831,266.691 101.916,266.677C102.002,266.663 102.089,266.665 102.173,266.687C103.433,266.947 104.693,267.207 105.953,267.407C106.121,267.435 106.269,267.529 106.367,267.669C106.464,267.807 106.502,267.979 106.473,268.147C106.43,268.279 106.343,268.395 106.228,268.475C106.112,268.555 105.974,268.593 105.833,268.587L105.833,268.687ZM132.793,268.347C132.646,268.345 132.504,268.291 132.391,268.197C132.278,268.101 132.201,267.971 132.173,267.827C132.153,267.743 132.15,267.657 132.164,267.573C132.179,267.489 132.211,267.409 132.258,267.337C132.304,267.265 132.366,267.205 132.437,267.159C132.509,267.111 132.589,267.081 132.673,267.067C133.893,266.807 135.153,266.507 136.413,266.167C136.495,266.145 136.58,266.141 136.663,266.153C136.746,266.163 136.826,266.191 136.899,266.235C136.971,266.277 137.035,266.333 137.085,266.401C137.136,266.469 137.173,266.545 137.193,266.627C137.237,266.793 137.212,266.971 137.127,267.121C137.041,267.269 136.899,267.379 136.733,267.427C135.473,267.767 134.193,268.067 132.933,268.327L132.793,268.347ZM98.253,267.067L98.094,267.067C96.854,266.727 95.593,266.387 94.333,265.987C94.172,265.935 94.037,265.823 93.958,265.673C93.879,265.523 93.863,265.349 93.913,265.187C93.936,265.105 93.975,265.029 94.028,264.963C94.082,264.897 94.148,264.843 94.223,264.803C94.298,264.763 94.38,264.741 94.464,264.735C94.549,264.727 94.633,264.739 94.713,264.767C95.953,265.127 97.193,265.487 98.413,265.807C98.496,265.825 98.575,265.861 98.643,265.909C98.712,265.959 98.77,266.023 98.813,266.097C98.856,266.169 98.883,266.251 98.894,266.335C98.904,266.419 98.897,266.505 98.873,266.587C98.823,266.707 98.736,266.809 98.625,266.877C98.514,266.945 98.384,266.977 98.253,266.967L98.253,267.067ZM140.253,266.367C140.115,266.365 139.98,266.319 139.869,266.237C139.758,266.153 139.675,266.039 139.633,265.907C139.583,265.745 139.599,265.569 139.678,265.419C139.757,265.269 139.892,265.157 140.053,265.107C141.273,264.727 142.493,264.307 143.693,263.847C143.856,263.793 144.032,263.801 144.188,263.873C144.343,263.943 144.467,264.069 144.533,264.227C144.591,264.391 144.582,264.571 144.507,264.729C144.432,264.887 144.298,265.007 144.133,265.067C142.933,265.527 141.673,265.947 140.453,266.327L140.253,266.367ZM90.813,264.787L90.594,264.787C89.374,264.347 88.153,263.887 86.953,263.407C86.874,263.375 86.802,263.329 86.741,263.271C86.679,263.211 86.631,263.141 86.597,263.061C86.564,262.983 86.546,262.899 86.545,262.815C86.545,262.729 86.561,262.645 86.594,262.567C86.624,262.487 86.671,262.415 86.73,262.353C86.789,262.293 86.86,262.243 86.938,262.209C87.016,262.177 87.1,262.159 87.185,262.159C87.27,262.157 87.355,262.173 87.433,262.207C88.613,262.687 89.813,263.147 91.033,263.567C91.192,263.625 91.322,263.745 91.393,263.897C91.464,264.051 91.472,264.227 91.413,264.387C91.356,264.483 91.273,264.561 91.175,264.613C91.076,264.667 90.965,264.691 90.853,264.687L90.813,264.787ZM147.513,263.667C147.388,263.665 147.266,263.627 147.16,263.561C147.054,263.493 146.969,263.399 146.913,263.287C146.852,263.197 146.813,263.095 146.801,262.987C146.788,262.879 146.802,262.771 146.842,262.669C146.881,262.569 146.945,262.479 147.027,262.409C147.109,262.339 147.208,262.289 147.313,262.267C148.473,261.767 149.653,261.247 150.813,260.687C150.89,260.649 150.972,260.627 151.057,260.622C151.141,260.617 151.226,260.629 151.306,260.657C151.386,260.685 151.46,260.728 151.523,260.785C151.586,260.841 151.637,260.91 151.673,260.987C151.744,261.141 151.751,261.316 151.696,261.477C151.64,261.637 151.524,261.769 151.373,261.847C150.193,262.407 148.993,262.947 147.813,263.467L147.513,263.667ZM83.613,261.887C83.528,261.905 83.439,261.905 83.353,261.887C82.173,261.347 80.993,260.787 79.833,260.207C79.757,260.17 79.688,260.119 79.632,260.056C79.575,259.993 79.532,259.919 79.504,259.839C79.476,259.759 79.464,259.674 79.469,259.59C79.474,259.505 79.496,259.423 79.533,259.346C79.611,259.191 79.747,259.071 79.912,259.015C80.077,258.959 80.257,258.97 80.413,259.047C81.553,259.627 82.713,260.187 83.873,260.707C83.951,260.739 84.021,260.787 84.08,260.847C84.14,260.907 84.186,260.978 84.218,261.056C84.249,261.134 84.265,261.218 84.264,261.302C84.264,261.386 84.246,261.469 84.213,261.547C84.146,261.629 84.06,261.693 83.963,261.735C83.865,261.777 83.759,261.795 83.654,261.787L83.613,261.887ZM154.493,260.287C154.38,260.288 154.269,260.258 154.17,260.202C154.072,260.146 153.99,260.065 153.933,259.967C153.892,259.892 153.865,259.81 153.855,259.725C153.846,259.64 153.853,259.554 153.878,259.472C153.902,259.39 153.942,259.313 153.997,259.247C154.051,259.181 154.118,259.126 154.193,259.087C155.313,258.467 156.433,257.827 157.513,257.087C157.664,257.003 157.84,256.979 158.007,257.02C158.174,257.06 158.319,257.163 158.413,257.307C158.457,257.379 158.486,257.459 158.498,257.542C158.511,257.625 158.507,257.71 158.486,257.792C158.466,257.874 158.429,257.951 158.379,258.019C158.329,258.086 158.266,258.143 158.193,258.187C157.093,258.867 155.953,259.507 154.793,260.187C154.712,260.229 154.624,260.256 154.533,260.267L154.493,260.287ZM76.693,258.427C76.589,258.457 76.478,258.457 76.373,258.427C75.233,257.787 74.113,257.147 72.993,256.427C72.85,256.332 72.747,256.187 72.706,256.02C72.666,255.853 72.69,255.677 72.773,255.527C72.868,255.383 73.013,255.28 73.18,255.24C73.347,255.199 73.523,255.223 73.673,255.307C74.773,255.987 75.873,256.627 76.993,257.307C77.069,257.346 77.136,257.401 77.19,257.467C77.245,257.533 77.285,257.61 77.309,257.692C77.334,257.774 77.341,257.86 77.332,257.945C77.322,258.03 77.295,258.112 77.253,258.187C77.177,258.236 77.092,258.269 77.002,258.282C76.912,258.296 76.821,258.291 76.733,258.267L76.693,258.427ZM161.113,256.287C161.006,256.284 160.9,256.256 160.806,256.204C160.712,256.151 160.632,256.077 160.573,255.987C160.486,255.841 160.455,255.668 160.489,255.502C160.522,255.335 160.616,255.187 160.753,255.087C161.813,254.387 162.873,253.627 163.893,252.867C164.033,252.77 164.204,252.73 164.372,252.756C164.539,252.782 164.69,252.872 164.793,253.007C164.845,253.073 164.883,253.15 164.905,253.231C164.926,253.313 164.932,253.398 164.921,253.481C164.91,253.565 164.882,253.646 164.84,253.719C164.797,253.792 164.741,253.855 164.673,253.907C163.633,254.687 162.553,255.447 161.473,256.167C161.379,256.232 161.268,256.267 161.154,256.267L161.113,256.287ZM70.053,254.287C69.924,254.284 69.799,254.242 69.693,254.167C68.613,253.447 67.553,252.687 66.513,251.927C66.442,251.877 66.381,251.813 66.335,251.739C66.289,251.665 66.258,251.583 66.245,251.497C66.232,251.411 66.237,251.323 66.259,251.238C66.281,251.154 66.32,251.075 66.373,251.007C66.425,250.939 66.488,250.883 66.561,250.84C66.634,250.798 66.715,250.77 66.799,250.759C66.882,250.748 66.967,250.754 67.049,250.775C67.13,250.797 67.207,250.835 67.273,250.887C68.313,251.647 69.273,252.387 70.433,253.087C70.571,253.187 70.665,253.337 70.695,253.504C70.724,253.672 70.688,253.845 70.594,253.987C70.539,254.07 70.465,254.139 70.378,254.188C70.291,254.236 70.193,254.264 70.094,254.267L70.053,254.287ZM167.333,251.547C167.238,251.545 167.143,251.523 167.057,251.482C166.971,251.44 166.894,251.38 166.833,251.307C166.781,251.241 166.742,251.166 166.718,251.085C166.695,251.004 166.688,250.919 166.697,250.836C166.706,250.752 166.732,250.671 166.773,250.598C166.813,250.524 166.868,250.459 166.933,250.407C167.893,249.607 168.933,248.747 169.834,247.887C169.957,247.767 170.122,247.7 170.293,247.7C170.465,247.7 170.63,247.767 170.753,247.887C170.815,247.946 170.864,248.018 170.898,248.097C170.931,248.176 170.948,248.261 170.948,248.346C170.948,248.432 170.931,248.517 170.898,248.596C170.864,248.675 170.815,248.747 170.753,248.807C169.793,249.687 168.753,250.547 167.813,251.367C167.747,251.43 167.668,251.478 167.582,251.509C167.496,251.54 167.405,251.553 167.313,251.547L167.333,251.547ZM63.813,249.667C63.668,249.668 63.526,249.619 63.413,249.527C62.393,248.707 61.414,247.846 60.434,247.007C60.372,246.947 60.323,246.875 60.289,246.796C60.256,246.717 60.239,246.632 60.239,246.547C60.239,246.461 60.256,246.376 60.289,246.297C60.323,246.218 60.372,246.146 60.434,246.087C60.553,245.968 60.715,245.902 60.884,245.902C61.052,245.902 61.214,245.968 61.334,246.087C62.293,246.927 63.333,247.767 64.293,248.587C64.412,248.706 64.478,248.868 64.478,249.037C64.478,249.205 64.412,249.367 64.293,249.487C64.236,249.545 64.168,249.591 64.092,249.622C64.016,249.653 63.935,249.668 63.853,249.667L63.813,249.667ZM173.113,246.267C172.942,246.255 172.779,246.185 172.654,246.066C172.538,245.941 172.474,245.777 172.474,245.607C172.474,245.436 172.538,245.272 172.654,245.147C173.554,244.247 174.453,243.307 175.313,242.367C175.433,242.248 175.595,242.182 175.763,242.182C175.932,242.182 176.094,242.248 176.214,242.367C176.327,242.489 176.391,242.649 176.391,242.816C176.391,242.984 176.327,243.144 176.214,243.267C175.334,244.247 174.433,245.267 173.513,246.107C173.401,246.202 173.261,246.258 173.113,246.267L173.113,246.267ZM58.054,244.447C57.883,244.444 57.72,244.38 57.594,244.267C56.654,243.347 55.734,242.407 54.854,241.467C54.734,241.343 54.667,241.178 54.667,241.007C54.667,240.835 54.734,240.67 54.854,240.547C54.973,240.428 55.135,240.362 55.304,240.362C55.472,240.362 55.634,240.428 55.754,240.547C56.634,241.467 57.534,242.387 58.454,243.287C58.573,243.41 58.64,243.575 58.64,243.747C58.64,243.918 58.573,244.083 58.454,244.207C58.415,244.286 58.359,244.356 58.289,244.411C58.22,244.467 58.14,244.506 58.054,244.527L58.054,244.447ZM178.313,240.447C178.162,240.45 178.013,240.4 177.893,240.307C177.774,240.183 177.707,240.018 177.707,239.846C177.707,239.675 177.774,239.51 177.893,239.387C178.694,238.407 179.493,237.386 180.233,236.346C180.337,236.212 180.488,236.122 180.655,236.096C180.823,236.07 180.994,236.11 181.133,236.207C181.205,236.254 181.265,236.316 181.311,236.388C181.357,236.46 181.387,236.541 181.4,236.626C181.414,236.71 181.409,236.797 181.387,236.879C181.365,236.962 181.327,237.039 181.274,237.107C180.514,238.167 179.714,239.107 178.893,240.207C178.842,240.317 178.76,240.412 178.657,240.479C178.555,240.546 178.436,240.583 178.313,240.587L178.313,240.447ZM52.754,238.707C52.659,238.712 52.564,238.695 52.477,238.657C52.39,238.618 52.314,238.56 52.254,238.487C51.414,237.487 50.594,236.486 49.794,235.447C49.742,235.38 49.704,235.303 49.683,235.222C49.661,235.14 49.655,235.055 49.666,234.972C49.677,234.888 49.705,234.807 49.748,234.734C49.79,234.661 49.846,234.598 49.914,234.547C50.052,234.441 50.226,234.395 50.398,234.418C50.57,234.44 50.727,234.529 50.834,234.667C51.594,235.667 52.414,236.667 53.234,237.647C53.353,237.77 53.42,237.935 53.42,238.107C53.42,238.278 53.353,238.443 53.234,238.566C53.177,238.643 53.105,238.708 53.023,238.756C52.94,238.804 52.848,238.835 52.754,238.846L52.754,238.707ZM182.873,234.187C182.752,234.194 182.632,234.159 182.533,234.087C182.389,233.992 182.288,233.845 182.25,233.677C182.213,233.509 182.243,233.333 182.334,233.187C183.033,232.127 183.714,231.027 184.334,229.927C184.375,229.852 184.431,229.787 184.498,229.735C184.565,229.683 184.641,229.645 184.723,229.622C184.805,229.6 184.891,229.594 184.975,229.605C185.059,229.616 185.14,229.644 185.214,229.687C185.359,229.774 185.465,229.914 185.51,230.078C185.555,230.242 185.534,230.417 185.453,230.566C184.793,231.686 184.113,232.807 183.453,233.907C183.401,234.015 183.318,234.107 183.215,234.17C183.113,234.234 182.994,234.267 182.873,234.267L182.873,234.187ZM48.034,232.566C47.927,232.568 47.822,232.544 47.728,232.495C47.634,232.446 47.553,232.374 47.494,232.287C46.754,231.227 46.034,230.127 45.354,229.027C45.264,228.883 45.235,228.71 45.272,228.545C45.31,228.38 45.411,228.237 45.554,228.147C45.7,228.056 45.876,228.026 46.044,228.063C46.212,228.101 46.359,228.202 46.454,228.346C47.114,229.427 47.834,230.507 48.554,231.566C48.603,231.636 48.638,231.714 48.657,231.797C48.676,231.88 48.678,231.966 48.663,232.05C48.648,232.134 48.616,232.214 48.57,232.285C48.524,232.357 48.464,232.419 48.394,232.467C48.297,232.577 48.173,232.66 48.034,232.707L48.034,232.566ZM186.753,227.487C186.655,227.514 186.552,227.514 186.453,227.487C186.302,227.41 186.188,227.276 186.136,227.114C186.083,226.953 186.097,226.778 186.173,226.626C186.753,225.466 187.313,224.307 187.813,223.147C187.846,223.069 187.894,222.999 187.954,222.94C188.015,222.882 188.086,222.836 188.165,222.806C188.243,222.776 188.327,222.763 188.411,222.766C188.495,222.77 188.578,222.79 188.654,222.827C188.731,222.859 188.801,222.907 188.86,222.967C188.919,223.027 188.966,223.098 188.998,223.176C189.029,223.254 189.045,223.337 189.044,223.422C189.044,223.506 189.026,223.589 188.993,223.667C188.473,224.846 187.914,226.027 187.334,227.207C187.287,227.325 187.208,227.428 187.105,227.502C187.003,227.577 186.88,227.62 186.753,227.626L186.753,227.487ZM43.934,225.987C43.821,225.986 43.71,225.956 43.612,225.9C43.514,225.844 43.432,225.763 43.374,225.667C42.76,224.52 42.16,223.36 41.574,222.187C41.536,222.11 41.514,222.028 41.509,221.943C41.504,221.859 41.516,221.774 41.544,221.694C41.572,221.614 41.615,221.54 41.672,221.477C41.728,221.414 41.797,221.363 41.874,221.327C41.95,221.289 42.032,221.267 42.117,221.262C42.201,221.257 42.286,221.269 42.366,221.297C42.446,221.325 42.52,221.368 42.583,221.425C42.646,221.481 42.697,221.55 42.734,221.626C43.294,222.766 43.893,223.927 44.513,225.027C44.555,225.101 44.582,225.183 44.592,225.268C44.601,225.353 44.594,225.439 44.569,225.521C44.545,225.603 44.505,225.68 44.451,225.746C44.396,225.812 44.329,225.867 44.253,225.907C44.175,226.014 44.062,226.092 43.934,226.126L43.934,225.987ZM189.933,220.387L189.714,220.387C189.553,220.324 189.423,220.201 189.352,220.044C189.281,219.887 189.275,219.708 189.334,219.547C189.673,218.647 189.994,217.727 190.274,216.807L190.553,215.907C190.604,215.745 190.717,215.61 190.867,215.531C191.017,215.453 191.192,215.436 191.353,215.487C191.435,215.509 191.512,215.549 191.578,215.601C191.645,215.654 191.7,215.72 191.741,215.794C191.782,215.869 191.808,215.951 191.817,216.035C191.826,216.12 191.818,216.205 191.793,216.287L191.513,217.187C191.213,218.147 190.893,219.066 190.553,220.007C190.516,220.165 190.422,220.305 190.29,220.4C190.158,220.496 189.996,220.541 189.834,220.527L189.933,220.387ZM192.193,212.967L192.033,212.967C191.868,212.924 191.726,212.819 191.636,212.673C191.547,212.528 191.517,212.353 191.553,212.187C191.853,210.967 192.133,209.707 192.373,208.427C192.388,208.344 192.419,208.266 192.464,208.196C192.509,208.126 192.568,208.066 192.637,208.019C192.706,207.972 192.784,207.94 192.866,207.924C192.948,207.908 193.032,207.909 193.113,207.927C193.28,207.956 193.429,208.05 193.527,208.189C193.624,208.328 193.663,208.499 193.633,208.667C193.393,209.967 193.113,211.247 192.813,212.487C192.808,212.575 192.786,212.662 192.746,212.741C192.707,212.821 192.652,212.892 192.585,212.949C192.518,213.007 192.44,213.051 192.355,213.078C192.271,213.105 192.182,213.115 192.094,213.107L192.193,212.967ZM193.633,205.346L193.533,205.346C193.367,205.322 193.217,205.232 193.116,205.097C193.014,204.963 192.971,204.793 192.993,204.626C193.167,203.293 193.327,202.013 193.473,200.787C193.481,200.703 193.505,200.622 193.545,200.548C193.584,200.474 193.638,200.409 193.704,200.357C193.769,200.305 193.845,200.266 193.925,200.244C194.006,200.221 194.09,200.215 194.173,200.227C194.258,200.234 194.339,200.258 194.414,200.297C194.489,200.337 194.555,200.391 194.609,200.456C194.663,200.521 194.704,200.596 194.729,200.677C194.753,200.757 194.762,200.842 194.753,200.927C194.613,202.227 194.453,203.507 194.274,204.807C194.285,204.904 194.273,205.003 194.239,205.095C194.205,205.187 194.15,205.269 194.077,205.336C194.005,205.402 193.918,205.45 193.824,205.477C193.729,205.503 193.63,205.506 193.533,205.487L193.633,205.346ZM194.453,197.647C194.369,197.639 194.287,197.615 194.213,197.576C194.138,197.536 194.072,197.482 194.018,197.417C193.964,197.352 193.923,197.277 193.898,197.196C193.874,197.116 193.865,197.031 193.873,196.947C193.873,195.667 194.034,194.387 194.094,193.107C194.096,193.021 194.116,192.936 194.152,192.858C194.187,192.78 194.239,192.71 194.302,192.652C194.365,192.594 194.44,192.55 194.521,192.521C194.602,192.493 194.688,192.481 194.774,192.487C194.859,192.489 194.944,192.509 195.022,192.545C195.1,192.58 195.17,192.632 195.228,192.695C195.286,192.758 195.33,192.833 195.359,192.914C195.387,192.995 195.399,193.081 195.393,193.167C195.393,194.467 195.254,195.767 195.154,197.047C195.175,197.154 195.168,197.265 195.134,197.368C195.1,197.472 195.04,197.566 194.96,197.64C194.88,197.714 194.782,197.766 194.676,197.792C194.57,197.818 194.459,197.816 194.353,197.787L194.453,197.647ZM194.834,189.907C194.749,189.907 194.665,189.889 194.587,189.856C194.509,189.822 194.438,189.773 194.38,189.711C194.322,189.649 194.277,189.576 194.249,189.496C194.22,189.416 194.208,189.331 194.214,189.247C194.214,187.947 194.214,186.667 194.214,185.387C194.214,185.217 194.281,185.054 194.401,184.934C194.521,184.814 194.684,184.747 194.853,184.747L194.853,184.747C194.938,184.749 195.02,184.768 195.097,184.803C195.174,184.837 195.243,184.887 195.3,184.948C195.358,185.009 195.403,185.081 195.432,185.16C195.462,185.239 195.476,185.322 195.473,185.407C195.473,186.687 195.473,187.986 195.473,189.287C195.495,189.389 195.491,189.495 195.461,189.596C195.432,189.696 195.378,189.788 195.305,189.863C195.232,189.938 195.142,189.994 195.042,190.026C194.943,190.058 194.837,190.065 194.733,190.047L194.834,189.907ZM194.953,182.147C194.785,182.147 194.623,182.083 194.5,181.968C194.378,181.852 194.304,181.695 194.293,181.527C194.293,180.307 194.294,179.027 194.094,177.687C194.082,177.515 194.139,177.345 194.251,177.214C194.363,177.084 194.522,177.002 194.693,176.987C194.864,176.98 195.031,177.039 195.161,177.15C195.29,177.261 195.374,177.417 195.393,177.587C195.513,178.947 195.574,180.267 195.594,181.587C195.594,181.756 195.526,181.919 195.406,182.039C195.286,182.159 195.123,182.227 194.953,182.227L194.953,182.147ZM194.313,174.427C194.157,174.428 194.005,174.371 193.887,174.268C193.769,174.165 193.693,174.022 193.673,173.867C193.493,172.627 193.293,171.367 193.053,170.066C193.024,169.897 193.062,169.723 193.159,169.581C193.256,169.439 193.405,169.34 193.573,169.307C193.743,169.277 193.917,169.315 194.059,169.412C194.201,169.509 194.3,169.658 194.334,169.827C194.574,171.147 194.774,172.427 194.953,173.687C194.976,173.859 194.93,174.033 194.826,174.172C194.721,174.31 194.565,174.402 194.393,174.427L194.313,174.427ZM192.933,166.787C192.785,166.788 192.641,166.737 192.527,166.642C192.413,166.546 192.337,166.413 192.313,166.267C192.033,165.047 191.733,163.787 191.413,162.527C191.371,162.357 191.398,162.177 191.488,162.027C191.578,161.877 191.724,161.769 191.893,161.727C192.06,161.69 192.235,161.72 192.38,161.809C192.526,161.899 192.631,162.041 192.673,162.207C192.993,163.487 193.293,164.747 193.573,166.007C193.604,166.173 193.568,166.345 193.475,166.486C193.382,166.628 193.238,166.728 193.073,166.767L192.933,166.787ZM191.033,159.267C190.892,159.263 190.756,159.215 190.644,159.129C190.533,159.042 190.452,158.922 190.413,158.787C190.073,157.566 189.693,156.327 189.313,155.087C189.286,155.007 189.275,154.922 189.281,154.837C189.288,154.753 189.311,154.671 189.35,154.596C189.39,154.521 189.444,154.455 189.51,154.401C189.576,154.348 189.652,154.309 189.733,154.287C189.813,154.259 189.898,154.248 189.983,154.254C190.067,154.261 190.149,154.284 190.224,154.324C190.299,154.363 190.365,154.417 190.419,154.483C190.472,154.549 190.511,154.625 190.533,154.707C190.933,155.947 191.314,157.187 191.654,158.427C191.678,158.508 191.686,158.593 191.677,158.678C191.668,158.762 191.642,158.844 191.601,158.919C191.56,158.993 191.505,159.059 191.438,159.112C191.372,159.164 191.295,159.204 191.214,159.227L191.033,159.267ZM188.693,151.867C188.557,151.869 188.423,151.828 188.311,151.749C188.199,151.669 188.116,151.556 188.073,151.427C187.653,150.207 187.213,149.007 186.753,147.807C186.721,147.728 186.705,147.643 186.705,147.558C186.706,147.473 186.724,147.389 186.757,147.311C186.791,147.233 186.839,147.162 186.901,147.103C186.962,147.044 187.034,146.997 187.113,146.967C187.275,146.908 187.454,146.915 187.611,146.986C187.768,147.057 187.891,147.186 187.953,147.346C188.414,148.546 188.873,149.767 189.293,151.007C189.352,151.166 189.344,151.341 189.273,151.495C189.202,151.649 189.072,151.768 188.913,151.827L188.693,151.867ZM185.893,144.626C185.765,144.625 185.641,144.587 185.534,144.516C185.427,144.445 185.344,144.344 185.293,144.227C184.793,143.027 184.273,141.847 183.733,140.707C183.694,140.63 183.671,140.546 183.665,140.459C183.66,140.373 183.673,140.287 183.703,140.206C183.733,140.125 183.78,140.051 183.84,139.989C183.901,139.927 183.973,139.879 184.053,139.846C184.128,139.81 184.209,139.788 184.292,139.783C184.376,139.778 184.459,139.79 184.537,139.818C184.616,139.846 184.688,139.89 184.749,139.946C184.81,140.003 184.859,140.071 184.893,140.147C185.453,141.327 185.973,142.507 186.493,143.727C186.526,143.804 186.544,143.887 186.544,143.971C186.545,144.056 186.529,144.139 186.498,144.217C186.466,144.295 186.419,144.366 186.36,144.426C186.301,144.486 186.231,144.534 186.154,144.566L185.893,144.626ZM168.493,139.487C167.193,139.487 165.874,139.307 164.594,139.147C164.508,139.139 164.425,139.115 164.35,139.074C164.274,139.033 164.208,138.977 164.156,138.909C164.103,138.842 164.065,138.764 164.044,138.681C164.023,138.598 164.019,138.511 164.033,138.427C164.043,138.342 164.07,138.261 164.112,138.187C164.153,138.113 164.209,138.048 164.276,137.996C164.343,137.944 164.42,137.905 164.502,137.883C164.584,137.861 164.669,137.855 164.753,137.867C165.993,138.027 167.293,138.127 168.553,138.187C168.639,138.189 168.724,138.209 168.802,138.245C168.88,138.28 168.95,138.332 169.008,138.395C169.066,138.458 169.11,138.533 169.138,138.614C169.167,138.695 169.179,138.781 169.173,138.867C169.192,138.972 169.184,139.081 169.151,139.183C169.118,139.285 169.061,139.377 168.984,139.452C168.907,139.527 168.813,139.582 168.71,139.612C168.607,139.643 168.499,139.648 168.393,139.626L168.493,139.487ZM172.373,139.487C172.207,139.492 172.045,139.432 171.922,139.32C171.799,139.208 171.724,139.053 171.714,138.887C171.708,138.715 171.77,138.548 171.885,138.421C172.001,138.294 172.162,138.217 172.334,138.207C173.634,138.207 174.913,138.026 176.133,137.846C176.305,137.829 176.476,137.877 176.614,137.981C176.751,138.085 176.844,138.237 176.873,138.407C176.885,138.491 176.879,138.576 176.857,138.658C176.835,138.74 176.796,138.817 176.744,138.884C176.692,138.951 176.627,139.007 176.553,139.048C176.479,139.09 176.398,139.117 176.313,139.126C175.053,139.306 173.733,139.427 172.313,139.487L172.373,139.487ZM160.813,138.507L160.673,138.507C159.387,138.23 158.118,137.876 156.873,137.447C156.71,137.392 156.575,137.275 156.497,137.122C156.418,136.969 156.403,136.791 156.453,136.626C156.48,136.546 156.523,136.472 156.579,136.408C156.635,136.344 156.703,136.292 156.78,136.255C156.856,136.218 156.939,136.196 157.024,136.191C157.109,136.186 157.193,136.198 157.273,136.227C158.479,136.64 159.707,136.981 160.953,137.247C161.037,137.265 161.115,137.301 161.185,137.35C161.254,137.4 161.313,137.463 161.358,137.535C161.403,137.608 161.432,137.689 161.445,137.773C161.458,137.858 161.454,137.944 161.433,138.027C161.429,138.114 161.406,138.2 161.366,138.279C161.327,138.357 161.272,138.427 161.204,138.483C161.137,138.54 161.058,138.581 160.974,138.606C160.889,138.631 160.801,138.638 160.713,138.626L160.813,138.507ZM180.013,138.367C179.872,138.367 179.734,138.319 179.621,138.233C179.509,138.146 179.429,138.024 179.393,137.887C179.356,137.722 179.383,137.55 179.469,137.405C179.554,137.26 179.692,137.153 179.853,137.107C180.473,136.947 181.093,136.747 181.673,136.547C181.193,135.647 180.693,134.747 180.193,133.887C180.106,133.735 180.083,133.556 180.128,133.387C180.173,133.218 180.283,133.074 180.433,132.987C180.584,132.91 180.757,132.893 180.92,132.937C181.082,132.981 181.223,133.085 181.313,133.227C181.833,134.147 182.373,135.107 182.893,136.107L183.413,135.867C183.573,135.799 183.752,135.797 183.913,135.861C184.074,135.924 184.203,136.048 184.274,136.207C184.306,136.284 184.324,136.367 184.324,136.451C184.325,136.536 184.309,136.619 184.278,136.697C184.246,136.775 184.2,136.846 184.14,136.906C184.081,136.966 184.011,137.014 183.933,137.047L183.073,137.427L182.913,137.527C182.802,137.554 182.685,137.554 182.573,137.527C181.813,137.807 181.013,138.047 180.193,138.267L180.013,138.367ZM153.513,135.947C153.415,135.967 153.312,135.967 153.213,135.947C152.009,135.332 150.892,134.558 149.893,133.647C149.774,133.523 149.707,133.358 149.707,133.187C149.707,133.015 149.774,132.85 149.893,132.727C149.953,132.665 150.025,132.616 150.104,132.582C150.183,132.549 150.268,132.531 150.353,132.531C150.439,132.531 150.524,132.549 150.603,132.582C150.682,132.616 150.754,132.665 150.813,132.727C151.736,133.55 152.757,134.255 153.853,134.827C153.928,134.864 153.995,134.917 154.049,134.981C154.103,135.046 154.144,135.12 154.168,135.201C154.192,135.281 154.2,135.366 154.191,135.449C154.181,135.533 154.155,135.613 154.113,135.687C154.057,135.82 153.957,135.93 153.83,135.999C153.703,136.068 153.556,136.092 153.413,136.066L153.513,135.947ZM187.033,135.187C186.932,135.187 186.833,135.164 186.742,135.119C186.652,135.074 186.573,135.008 186.513,134.927C186.417,134.787 186.377,134.616 186.403,134.448C186.429,134.281 186.519,134.13 186.654,134.027C187.392,133.489 188.064,132.864 188.654,132.167C188.854,131.927 189.074,131.687 189.274,131.427C189.396,131.313 189.556,131.249 189.723,131.249C189.89,131.249 190.051,131.313 190.173,131.427C190.235,131.486 190.284,131.558 190.318,131.637C190.351,131.716 190.369,131.801 190.369,131.887C190.369,131.972 190.351,132.057 190.318,132.136C190.284,132.215 190.235,132.287 190.173,132.346C189.973,132.607 189.753,132.847 189.533,133.107C188.864,133.848 188.12,134.518 187.313,135.107C187.21,135.21 187.078,135.28 186.933,135.307L187.033,135.187ZM178.733,130.887C178.627,130.888 178.522,130.864 178.428,130.815C178.334,130.766 178.253,130.694 178.193,130.607C177.453,129.487 176.713,128.427 175.973,127.467C175.875,127.324 175.835,127.15 175.861,126.979C175.887,126.808 175.978,126.653 176.113,126.547C176.182,126.496 176.259,126.46 176.341,126.439C176.424,126.419 176.509,126.415 176.593,126.428C176.676,126.441 176.757,126.471 176.829,126.515C176.901,126.56 176.964,126.618 177.013,126.687C177.773,127.667 178.533,128.687 179.274,129.887C179.364,130.033 179.394,130.209 179.357,130.377C179.319,130.545 179.218,130.692 179.073,130.787C179.024,130.857 178.958,130.913 178.881,130.952C178.804,130.99 178.719,131.009 178.633,131.007L178.733,130.887ZM148.273,130.527C148.132,130.527 147.994,130.479 147.881,130.393C147.769,130.306 147.689,130.184 147.654,130.047C147.533,129.583 147.473,129.106 147.473,128.626C147.487,127.663 147.712,126.713 148.133,125.846C148.17,125.77 148.221,125.701 148.284,125.645C148.347,125.588 148.421,125.545 148.501,125.517C148.581,125.489 148.666,125.477 148.75,125.482C148.835,125.487 148.917,125.509 148.993,125.547C149.069,125.581 149.137,125.63 149.194,125.691C149.25,125.753 149.294,125.824 149.322,125.903C149.35,125.981 149.362,126.064 149.357,126.148C149.352,126.231 149.33,126.312 149.293,126.387C148.965,127.088 148.788,127.852 148.773,128.626C148.769,128.998 148.816,129.368 148.913,129.727C148.935,129.808 148.939,129.893 148.928,129.976C148.916,130.059 148.888,130.139 148.845,130.212C148.802,130.284 148.746,130.348 148.679,130.398C148.611,130.449 148.535,130.486 148.453,130.507L148.273,130.527ZM192.173,129.427C192.037,129.427 191.905,129.385 191.793,129.307C191.723,129.258 191.663,129.197 191.617,129.125C191.571,129.054 191.539,128.974 191.524,128.89C191.51,128.806 191.511,128.72 191.53,128.637C191.549,128.554 191.584,128.476 191.633,128.407C192.373,127.367 193.073,126.287 193.633,125.187C193.677,125.114 193.734,125.051 193.801,125.001C193.869,124.951 193.946,124.914 194.028,124.894C194.11,124.873 194.195,124.869 194.278,124.882C194.361,124.894 194.441,124.923 194.513,124.967C194.586,125.01 194.649,125.067 194.699,125.134C194.749,125.202 194.786,125.279 194.806,125.361C194.827,125.443 194.831,125.528 194.818,125.611C194.806,125.694 194.777,125.774 194.733,125.846C194.093,126.967 193.373,128.067 192.613,129.147C192.571,129.258 192.498,129.355 192.402,129.426C192.307,129.497 192.192,129.539 192.073,129.547L192.173,129.427ZM174.033,124.727C173.942,124.726 173.852,124.706 173.77,124.668C173.687,124.63 173.613,124.575 173.553,124.507C172.703,123.571 171.794,122.689 170.834,121.867C170.714,121.743 170.647,121.578 170.647,121.407C170.647,121.235 170.714,121.07 170.834,120.947C170.953,120.828 171.115,120.762 171.283,120.762C171.452,120.762 171.614,120.828 171.733,120.947C172.734,121.809 173.683,122.731 174.573,123.707C174.635,123.766 174.684,123.838 174.718,123.917C174.751,123.996 174.768,124.081 174.768,124.167C174.768,124.252 174.751,124.337 174.718,124.416C174.684,124.495 174.635,124.567 174.573,124.626C174.498,124.719 174.398,124.789 174.285,124.828C174.172,124.867 174.05,124.873 173.933,124.846L174.033,124.727ZM150.973,123.626C150.813,123.625 150.657,123.569 150.533,123.467C150.418,123.341 150.354,123.177 150.354,123.007C150.354,122.836 150.418,122.672 150.533,122.547C151.417,121.55 152.38,120.627 153.413,119.787C153.479,119.734 153.554,119.695 153.635,119.671C153.716,119.648 153.801,119.641 153.884,119.65C153.968,119.659 154.049,119.685 154.122,119.726C154.196,119.766 154.261,119.821 154.313,119.887C154.421,120.022 154.47,120.195 154.452,120.367C154.433,120.539 154.347,120.697 154.213,120.807C153.24,121.594 152.337,122.464 151.513,123.407C151.448,123.516 151.354,123.606 151.241,123.666C151.128,123.726 151.001,123.754 150.873,123.747L150.973,123.626ZM196.073,122.747C195.981,122.765 195.886,122.765 195.793,122.747C195.717,122.71 195.648,122.659 195.592,122.596C195.535,122.533 195.492,122.459 195.464,122.379C195.436,122.299 195.424,122.214 195.429,122.13C195.434,122.045 195.456,121.963 195.493,121.887C196.033,120.727 196.513,119.546 196.953,118.346C197.012,118.188 197.131,118.058 197.285,117.987C197.439,117.916 197.614,117.908 197.774,117.967C197.854,117.994 197.928,118.036 197.992,118.092C198.056,118.148 198.108,118.216 198.145,118.293C198.182,118.369 198.204,118.452 198.209,118.537C198.214,118.622 198.202,118.706 198.173,118.787C197.713,120.027 197.214,121.247 196.654,122.427C196.612,122.569 196.52,122.692 196.395,122.773C196.27,122.854 196.121,122.887 195.973,122.867L196.073,122.747ZM168.073,119.767C167.96,119.761 167.85,119.727 167.753,119.667C166.695,119.04 165.558,118.556 164.373,118.227C164.292,118.206 164.216,118.169 164.148,118.118C164.081,118.068 164.025,118.004 163.982,117.932C163.939,117.859 163.911,117.779 163.899,117.696C163.888,117.613 163.892,117.528 163.913,117.447C163.932,117.364 163.967,117.285 164.017,117.217C164.067,117.148 164.131,117.09 164.204,117.047C164.277,117.004 164.358,116.977 164.442,116.966C164.527,116.956 164.612,116.963 164.693,116.987C165.996,117.343 167.246,117.867 168.413,118.547C168.561,118.638 168.667,118.783 168.708,118.951C168.749,119.12 168.722,119.298 168.633,119.447C168.588,119.575 168.504,119.686 168.393,119.765C168.282,119.844 168.15,119.886 168.013,119.887L168.073,119.767ZM156.993,118.887C156.868,118.885 156.746,118.848 156.64,118.781C156.534,118.714 156.449,118.619 156.393,118.507C156.326,118.353 156.321,118.178 156.381,118.021C156.441,117.864 156.56,117.736 156.713,117.667C157.975,117.084 159.329,116.726 160.713,116.607C160.798,116.598 160.882,116.607 160.963,116.631C161.044,116.656 161.119,116.697 161.184,116.751C161.249,116.805 161.303,116.871 161.343,116.946C161.382,117.02 161.406,117.102 161.413,117.187C161.425,117.271 161.418,117.357 161.395,117.439C161.371,117.521 161.331,117.597 161.276,117.663C161.222,117.729 161.154,117.783 161.078,117.821C161.002,117.859 160.919,117.882 160.833,117.887C159.617,118.008 158.429,118.326 157.313,118.827C157.212,118.929 157.077,118.993 156.933,119.007L156.993,118.887ZM198.654,115.467L198.493,115.467C198.327,115.42 198.186,115.31 198.1,115.16C198.014,115.011 197.99,114.834 198.033,114.667C198.353,113.447 198.613,112.187 198.813,110.947C198.826,110.862 198.855,110.781 198.899,110.708C198.943,110.635 199.001,110.571 199.07,110.521C199.139,110.47 199.217,110.434 199.3,110.415C199.383,110.395 199.469,110.392 199.553,110.407C199.722,110.436 199.872,110.53 199.973,110.668C200.073,110.806 200.117,110.977 200.094,111.147C199.894,112.427 199.613,113.727 199.293,114.987C199.278,115.158 199.196,115.317 199.066,115.429C198.935,115.541 198.765,115.598 198.594,115.587L198.654,115.467ZM199.873,107.807C199.788,107.804 199.703,107.784 199.625,107.748C199.547,107.713 199.477,107.661 199.419,107.598C199.361,107.535 199.317,107.46 199.288,107.379C199.26,107.298 199.248,107.212 199.253,107.126C199.253,106.306 199.253,105.507 199.253,104.687C199.253,104.227 199.253,103.767 199.253,103.307C199.251,103.222 199.265,103.139 199.294,103.06C199.324,102.981 199.369,102.909 199.427,102.848C199.484,102.787 199.553,102.737 199.63,102.703C199.707,102.668 199.789,102.649 199.873,102.647C199.959,102.641 200.045,102.653 200.126,102.681C200.207,102.71 200.282,102.754 200.345,102.812C200.408,102.87 200.46,102.94 200.495,103.018C200.531,103.096 200.551,103.181 200.553,103.267C200.553,103.747 200.553,104.207 200.553,104.687C200.553,105.527 200.553,106.367 200.553,107.207C200.567,107.306 200.558,107.408 200.525,107.503C200.493,107.598 200.438,107.684 200.366,107.754C200.294,107.824 200.206,107.876 200.11,107.906C200.014,107.936 199.913,107.943 199.813,107.927L199.873,107.807ZM199.613,100.066C199.457,100.068 199.305,100.011 199.187,99.908C199.069,99.805 198.993,99.662 198.973,99.507C198.813,98.267 198.593,97.006 198.313,95.746C198.296,95.664 198.295,95.578 198.311,95.495C198.326,95.412 198.358,95.333 198.405,95.262C198.451,95.192 198.511,95.131 198.582,95.083C198.652,95.036 198.731,95.003 198.813,94.986C198.978,94.951 199.15,94.981 199.292,95.071C199.434,95.16 199.535,95.303 199.573,95.467C199.853,96.767 200.093,98.066 200.253,99.346C200.265,99.431 200.259,99.516 200.237,99.598C200.215,99.68 200.176,99.757 200.124,99.824C200.072,99.891 200.007,99.947 199.933,99.988C199.859,100.03 199.778,100.057 199.693,100.066L199.613,100.066ZM197.953,92.507C197.835,92.534 197.711,92.525 197.597,92.483C197.484,92.44 197.385,92.365 197.313,92.267C196.933,91.067 196.493,89.847 196.013,88.667C195.981,88.589 195.963,88.506 195.962,88.422C195.962,88.337 195.978,88.254 196.009,88.176C196.041,88.098 196.087,88.027 196.147,87.967C196.206,87.907 196.276,87.859 196.353,87.827C196.516,87.766 196.695,87.769 196.855,87.836C197.015,87.903 197.143,88.028 197.214,88.186C197.714,89.386 198.153,90.646 198.553,91.866C198.603,92.034 198.585,92.214 198.503,92.367C198.42,92.521 198.28,92.636 198.113,92.686L197.953,92.507ZM194.993,85.347C194.878,85.348 194.764,85.317 194.665,85.257C194.566,85.196 194.486,85.11 194.433,85.007C193.853,83.867 193.213,82.766 192.533,81.687C192.445,81.538 192.418,81.36 192.459,81.191C192.5,81.023 192.606,80.878 192.753,80.787C192.825,80.74 192.905,80.709 192.989,80.695C193.073,80.681 193.159,80.684 193.241,80.705C193.324,80.726 193.401,80.763 193.469,80.815C193.536,80.867 193.592,80.932 193.633,81.007C194.333,82.107 194.973,83.247 195.633,84.407C195.711,84.561 195.725,84.739 195.673,84.904C195.621,85.068 195.506,85.206 195.353,85.287L194.993,85.347ZM190.893,78.787C190.796,78.783 190.701,78.758 190.614,78.713C190.528,78.668 190.452,78.604 190.393,78.527C189.634,77.507 188.813,76.527 187.973,75.567C187.854,75.443 187.787,75.278 187.787,75.107C187.787,74.935 187.854,74.77 187.973,74.647C188.033,74.585 188.105,74.536 188.184,74.502C188.263,74.469 188.348,74.452 188.433,74.452C188.519,74.452 188.604,74.469 188.683,74.502C188.762,74.536 188.834,74.585 188.893,74.647C189.753,75.627 190.573,76.647 191.353,77.687C191.459,77.825 191.505,77.999 191.482,78.171C191.46,78.343 191.37,78.5 191.233,78.607C191.14,78.751 190.998,78.858 190.834,78.907L190.893,78.787ZM185.774,72.986C185.692,72.987 185.611,72.971 185.536,72.94C185.46,72.909 185.391,72.864 185.334,72.807C184.414,71.927 183.453,71.067 182.473,70.267C182.408,70.214 182.353,70.149 182.313,70.075C182.272,70.002 182.246,69.921 182.237,69.837C182.228,69.754 182.235,69.669 182.258,69.588C182.282,69.508 182.321,69.432 182.373,69.366C182.426,69.301 182.491,69.246 182.565,69.206C182.638,69.165 182.719,69.139 182.803,69.13C182.886,69.121 182.971,69.128 183.052,69.151C183.132,69.175 183.208,69.214 183.274,69.267C184.294,70.087 185.273,70.966 186.233,71.866C186.353,71.99 186.42,72.155 186.42,72.327C186.42,72.498 186.353,72.663 186.233,72.787C186.175,72.874 186.098,72.947 186.008,73.003C185.918,73.058 185.818,73.093 185.714,73.107L185.774,72.986ZM179.774,68.107C179.647,68.101 179.524,68.067 179.413,68.007C178.353,67.287 177.273,66.607 176.173,66.007C176.098,65.967 176.031,65.912 175.977,65.846C175.922,65.78 175.882,65.703 175.858,65.621C175.833,65.539 175.826,65.453 175.835,65.368C175.845,65.283 175.872,65.201 175.913,65.127C175.998,64.977 176.137,64.867 176.301,64.819C176.465,64.77 176.642,64.787 176.793,64.866C177.933,65.506 179.053,66.186 180.133,66.866C180.205,66.913 180.267,66.973 180.315,67.044C180.363,67.115 180.397,67.195 180.414,67.278C180.43,67.362 180.43,67.449 180.413,67.533C180.396,67.616 180.362,67.696 180.313,67.767C180.282,67.908 180.203,68.034 180.091,68.125C179.978,68.216 179.838,68.266 179.693,68.267L179.774,68.107ZM172.993,64.366L172.753,64.366C171.586,63.849 170.39,63.395 169.173,63.007C169.014,62.948 168.883,62.829 168.809,62.677C168.734,62.524 168.722,62.348 168.773,62.186C168.828,62.023 168.945,61.888 169.098,61.81C169.251,61.731 169.429,61.716 169.594,61.767C170.814,62.187 172.053,62.647 173.253,63.167C173.412,63.237 173.536,63.366 173.599,63.527C173.663,63.688 173.661,63.867 173.594,64.027C173.552,64.171 173.461,64.296 173.337,64.38C173.213,64.464 173.063,64.502 172.913,64.486L172.993,64.366Z" transform="rotate(150 121.034 165.732)" fill="#999999"/>
</svg>
