<svg width="24" height="10" viewBox="0 0 24 10" fill="none" xmlns="http://www.w3.org/2000/svg" xmlns:xlink="http://www.w3.org/1999/xlink">
<path d="M1.711,-0.134C1.27,-0.465 0.643,-0.376 0.311,0.066C-0.02,0.508 0.07,1.135 0.511,1.466L1.711,-0.134ZM23.045,1.466C23.487,1.135 23.576,0.508 23.245,0.066C22.913,-0.376 22.287,-0.465 21.845,-0.134L23.045,1.466ZM12.978,7.766L12.378,6.966L12.978,7.766ZM0.511,1.466L9.978,8.566L11.178,6.966L1.711,-0.134L0.511,1.466ZM13.578,8.566L23.045,1.466L21.845,-0.134L12.378,6.966L13.578,8.566ZM9.978,8.566C11.045,9.366 12.511,9.366 13.578,8.566L12.378,6.966C12.022,7.233 11.534,7.233 11.178,6.966L9.978,8.566Z" fill="#999999"/>
</svg>
